<svg xmlns="http://www.w3.org/2000/svg" viewBox="0 0 200.55 123.9"><defs><style>.cls-1{fill:none;}.cls-2{fill:#70c270;}.cls-2,.cls-3,.cls-4,.cls-5,.cls-6,.cls-7{stroke:#000;stroke-miterlimit:10;stroke-width:0.75px;}.cls-3{fill:#36a136;}.cls-4{fill:#4eb350;}.cls-5{fill:#a2ef7f;}.cls-6{fill:#b5f199;}.cls-7{font-size:21.61px;fill:#edff00;font-family:Impact;}</style></defs><title>dollar 2</title><g id="Layer_2" data-name="Layer 2"><g id="Dollar"><rect class="cls-1" x="2.55" y="3.9" width="198" height="120"/><path class="cls-2" d="M23.09,118.48c-3.23.88-3.23.88-4.22-2.38-2.38-7.88-4.74-15.78-7.19-23.65-.43-1.4-.45-2.27,1.24-2.46,1.5-.18,1.35-1.12.9-2.11-.56-1.2-.11-1.66,1.1-2q29-8.71,57.94-17.52c2.82-.86,1.67,1.79,2.49,2.69a.13.13,0,0,1,.09.18,1.84,1.84,0,0,0-.41,0Q47,79.7,19,88.14c-1.15.35-1.43.89-1,2,.28.76.74,1.79-.57,2-2.27.34-1.87,1.61-1.39,3.15,1.29,4.06,2.47,8.16,3.73,12.23,1.14,3.67,2.32,7.32,3.48,11Z"/><path class="cls-3" d="M75.35,71c3.25-.83,3.25-.83,4.27,2.53,2.39,7.89,4.74,15.79,7.19,23.66.43,1.35.33,2.12-1.2,2.3-1.36.15-1.59.89-1,2,.72,1.42,0,1.84-1.28,2.23q-28,8.41-56,16.92c-3.26,1-3.26,1-4.25-2.19h.17c.4-.13.79-.28,1.19-.4q27-8.19,54.08-16.36c1.47-.44,2.73-.79,1.79-2.75a1,1,0,0,1,.8-1.53c2.1-.3,1.8-1.48,1.34-3-2.38-7.73-4.69-15.49-7-23.23A.13.13,0,0,0,75.35,71Z"/><path class="cls-4" d="M75.44,71.2c2.33,7.74,4.64,15.5,7,23.23.46,1.52.76,2.7-1.34,3a1,1,0,0,0-.8,1.53c.94,2-.32,2.31-1.79,2.75q-27,8.15-54.08,16.36c-.4.12-.79.27-1.19.4-1.16-3.66-2.34-7.31-3.48-11-1.26-4.07-2.44-8.17-3.73-12.23-.48-1.54-.88-2.81,1.39-3.15,1.31-.2.85-1.23.57-2-.41-1.09-.13-1.63,1-2q28-8.42,56-16.9A1.84,1.84,0,0,1,75.44,71.2ZM28.17,89c-3.2.82-3.2.82-2.32,3.93,0,.07,0,.14,0,.2-1.61.54-3.85.53-2.51,3.37.45,1-.6,1.13-1.23,1.25-1.36.27-1.66.91-1.2,2.22.72,2,1.34,4.12,1.88,6.21.33,1.27.85,1.86,2.18,1.24,1.15-.54,1.85-.21,2.06,1.09s.77,1.76,2,1.18,2-.24,2.2,1.15.91,1.44,2.09,1.08q19.24-5.88,38.5-11.66c1.16-.34,1.75-.8,1.17-2s-.22-2,1.16-2.19,1.56-1,1.05-2.09-.2-1.87,1.09-2.06,1.58-1,1.14-2.22c-.73-2.11-1.36-4.26-1.94-6.42-.31-1.13-.85-1.55-1.94-1-1.39.66-2.07.12-2.3-1.29-.17-1.06-.77-1.45-1.78-1-1.47.7-2.2.17-2.43-1.35-.18-1.17-.89-1.18-1.85-.89Q46.72,83.32,28.17,89Z"/><path class="cls-5" d="M28.17,89q18.54-5.64,37.08-11.3c1-.29,1.67-.28,1.85.89.23,1.52,1,2,2.43,1.35,1-.48,1.61-.09,1.78,1,.23,1.41.91,2,2.3,1.29,1.09-.51,1.63-.09,1.94,1,.58,2.16,1.21,4.31,1.94,6.42.44,1.25.28,2-1.14,2.22s-1.62.9-1.09,2.06.29,1.89-1.05,2.09-1.75,1-1.16,2.19,0,1.7-1.17,2Q52.62,106,33.38,111.87c-1.18.36-1.89.24-2.09-1.08s-.95-1.73-2.2-1.15-1.81,0-2-1.18-.91-1.63-2.06-1.09c-1.33.62-1.85,0-2.18-1.24C22.3,104,21.68,102,21,99.92c-.46-1.31-.16-2,1.2-2.22.63-.12,1.68-.29,1.23-1.25-1.34-2.84.9-2.83,2.51-3.37C29.52,92,29.27,92.59,28.17,89ZM50.56,99.64c4.95-1.5,4.95-1.5,3.49-6.33s-1.46-4.8-6.24-3.36S43,91.42,44.45,96.36C45.88,101.06,45.88,101.06,50.56,99.64Z"/><path class="cls-6" d="M28.17,89c1.1,3.64,1.35,3-2.27,4.13,0-.06,0-.13,0-.2C25,89.77,25,89.77,28.17,89Z"/><path class="cls-4" d="M50.56,99.64c-4.68,1.42-4.68,1.42-6.11-3.28C43,91.42,43,91.42,47.81,90s4.78-1.44,6.24,3.36S55.51,98.14,50.56,99.64Z"/><text class="cls-7" transform="translate(46.75 103.86) rotate(-16.84)">$</text><path class="cls-2" d="M120.24,109.29c-3.28-.66-3.28-.66-2.7-4,1.39-8.12,2.81-16.23,4.14-24.37.24-1.44.62-2.23,2.22-1.65,1.42.52,1.7-.39,1.74-1.48,0-1.33.64-1.54,1.89-1.32q29.82,5.16,59.66,10.24c2.91.49.7,2.35,1,3.53a.12.12,0,0,1,0,.19,1.9,1.9,0,0,0-.4-.14l-57.63-9.93c-1.19-.21-1.68.15-1.81,1.31-.08.8-.14,1.93-1.39,1.52-2.19-.71-2.4.6-2.65,2.2-.67,4.21-1.44,8.4-2.14,12.61-.62,3.79-1.2,7.58-1.8,11.37Z"/><path class="cls-3" d="M188.21,90.22c3.28.7,3.28.7,2.69,4.16-1.39,8.13-2.82,16.24-4.15,24.38-.23,1.4-.66,2-2.1,1.52-1.29-.47-1.82.09-1.82,1.34,0,1.6-.79,1.66-2.14,1.43q-28.8-5-57.62-9.91c-3.36-.57-3.36-.57-2.83-3.85l.16.06c.42.06.83.11,1.24.18q27.86,4.77,55.69,9.56c1.52.26,2.8.5,2.83-1.66,0-.87.55-1.31,1.4-1,2,.68,2.28-.52,2.54-2.08,1.33-8,2.74-16,4.12-23.92A.12.12,0,0,0,188.21,90.22Z"/><path class="cls-4" d="M188.22,90.41c-1.38,8-2.79,15.94-4.12,23.92-.26,1.56-.53,2.76-2.54,2.08-.85-.29-1.39.15-1.4,1,0,2.16-1.31,1.92-2.83,1.66q-27.84-4.82-55.69-9.56c-.41-.07-.82-.12-1.24-.18.6-3.79,1.18-7.58,1.8-11.37.7-4.21,1.47-8.4,2.14-12.61.25-1.6.46-2.91,2.65-2.2,1.25.41,1.31-.72,1.39-1.52.13-1.16.62-1.52,1.81-1.31l57.63,9.93A1.9,1.9,0,0,1,188.22,90.41ZM138,85.15c-3.23-.71-3.23-.71-3.84,2.48,0,.06,0,.13,0,.2-1.68-.24-3.69-1.25-3.76,1.89,0,1.06-1,.73-1.65.56-1.34-.36-1.9.08-2.07,1.45-.27,2.15-.65,4.28-1.09,6.4-.28,1.28-.07,2,1.39,2.08,1.27,0,1.75.65,1.36,1.89s-.1,1.93,1.27,2,1.88.68,1.45,2,.17,1.69,1.38,1.9q19.85,3.34,39.66,6.79c1.19.21,1.92.06,1.95-1.3s.7-1.88,2-1.44,1.83-.17,1.87-1.4.66-1.76,1.9-1.36,1.84-.16,2-1.48c.29-2.21.68-4.42,1.12-6.61.24-1.14-.06-1.76-1.26-1.79-1.54,0-1.91-.82-1.48-2.18.32-1,0-1.65-1.16-1.67-1.63,0-2-.83-1.57-2.3.36-1.12-.27-1.45-1.26-1.61Q157.1,88.41,138,85.15Z"/><path class="cls-5" d="M138,85.15q19.11,3.24,38.21,6.48c1,.16,1.62.49,1.26,1.61-.47,1.47-.06,2.27,1.57,2.3,1.11,0,1.48.64,1.16,1.67-.43,1.36-.06,2.14,1.48,2.18,1.2,0,1.5.65,1.26,1.79-.44,2.19-.83,4.4-1.12,6.61-.18,1.32-.65,1.93-2,1.48s-1.85.08-1.9,1.36-.58,1.81-1.87,1.4-2,.06-2,1.44-.76,1.51-1.95,1.3q-19.83-3.45-39.66-6.79c-1.21-.21-1.79-.63-1.38-1.9s-.08-2-1.45-2-1.63-.81-1.27-2-.09-1.86-1.36-1.89c-1.46,0-1.67-.8-1.39-2.08.44-2.12.82-4.25,1.09-6.4.17-1.37.73-1.81,2.07-1.45.61.17,1.63.5,1.65-.56.07-3.14,2.08-2.13,3.76-1.89C137.86,88.44,137.35,88.9,138,85.15Zm15.24,19.57c5.1.88,5.1.88,5.95-4.1s.85-5-4.08-5.79-5-.86-5.86,4.22C148.42,103.9,148.42,103.9,153.24,104.72Z"/><path class="cls-6" d="M138,85.15c-.65,3.75-.14,3.29-3.88,2.68,0-.07,0-.14,0-.2C134.77,84.44,134.77,84.44,138,85.15Z"/><path class="cls-4" d="M153.24,104.72c-4.82-.82-4.82-.82-4-5.67.87-5.08.87-5.08,5.86-4.22s4.93.84,4.08,5.79S158.34,105.6,153.24,104.72Z"/><text class="cls-7" transform="translate(147.94 106.79) rotate(9.73)">$</text><path class="cls-2" d="M9.24,53.29c-3.28-.66-3.28-.66-2.7-4C7.93,41.15,9.35,33,10.68,24.9c.24-1.44.62-2.23,2.22-1.65,1.42.52,1.7-.39,1.74-1.48,0-1.33.64-1.54,1.89-1.32q29.82,5.16,59.66,10.24c2.91.49.7,2.35,1,3.53a.12.12,0,0,1,0,.19,1.9,1.9,0,0,0-.4-.14L19.19,24.34c-1.19-.21-1.68.15-1.81,1.31-.08.8-.14,1.93-1.39,1.52-2.19-.71-2.4.6-2.65,2.2-.67,4.21-1.44,8.4-2.14,12.61-.62,3.79-1.2,7.58-1.8,11.37Z"/><path class="cls-3" d="M77.21,34.22c3.28.7,3.28.7,2.69,4.16-1.39,8.13-2.82,16.24-4.15,24.38-.23,1.4-.66,2-2.1,1.52s-1.82.09-1.82,1.34c0,1.6-.79,1.66-2.14,1.43q-28.8-5-57.62-9.91c-3.36-.57-3.36-.57-2.83-3.85l.16.06c.42.06.83.11,1.24.18Q38.5,58.3,66.33,63.09c1.52.26,2.8.5,2.83-1.66,0-.87.55-1.31,1.4-1,2,.68,2.28-.52,2.54-2.08,1.33-8,2.74-15.95,4.12-23.92A.12.12,0,0,0,77.21,34.22Z"/><path class="cls-4" d="M77.22,34.41c-1.38,8-2.79,15.94-4.12,23.92-.26,1.56-.53,2.76-2.54,2.08-.85-.29-1.39.15-1.4,1,0,2.16-1.31,1.92-2.83,1.66q-27.84-4.81-55.69-9.56c-.41-.07-.82-.12-1.24-.18.6-3.79,1.18-7.58,1.8-11.37.7-4.21,1.47-8.4,2.14-12.61.25-1.6.46-2.91,2.65-2.2,1.25.41,1.31-.72,1.39-1.52.13-1.16.62-1.52,1.81-1.31l57.63,9.93A1.9,1.9,0,0,1,77.22,34.41ZM27,29.15c-3.23-.71-3.23-.71-3.84,2.48,0,.06,0,.13,0,.2-1.68-.24-3.69-1.25-3.76,1.89,0,1.06-1,.73-1.65.56-1.34-.36-1.9.08-2.07,1.45-.27,2.15-.65,4.28-1.09,6.4-.28,1.28-.07,2,1.39,2.08,1.27,0,1.75.65,1.36,1.89s-.1,1.93,1.27,2,1.88.68,1.45,2,.17,1.69,1.38,1.9q19.85,3.35,39.66,6.79c1.19.21,1.92.06,1.95-1.3s.7-1.88,2-1.44,1.83-.17,1.87-1.4.66-1.76,1.9-1.36,1.84-.16,2-1.48c.29-2.21.68-4.42,1.12-6.61.24-1.14-.06-1.76-1.26-1.79-1.54,0-1.91-.82-1.48-2.18.32-1,0-1.65-1.16-1.67-1.63,0-2-.83-1.57-2.3.36-1.12-.27-1.45-1.26-1.61Q46.1,32.4,27,29.15Z"/><path class="cls-5" d="M27,29.15q19.11,3.24,38.21,6.48c1,.16,1.62.49,1.26,1.61-.47,1.47-.06,2.27,1.57,2.3,1.11,0,1.48.64,1.16,1.67-.43,1.36-.06,2.14,1.48,2.18,1.2,0,1.5.65,1.26,1.79-.44,2.19-.83,4.4-1.12,6.61-.18,1.32-.65,1.93-2,1.48s-1.85.08-1.9,1.36S66.32,56.44,65,56s-2,.06-2,1.44-.76,1.51-1.95,1.3Q41.23,55.32,21.4,52c-1.21-.21-1.79-.63-1.38-1.9s-.08-2-1.45-2-1.63-.81-1.27-2-.09-1.86-1.36-1.89c-1.46,0-1.67-.8-1.39-2.08.44-2.12.82-4.25,1.09-6.4.17-1.37.73-1.81,2.07-1.45.61.17,1.63.5,1.65-.56.07-3.14,2.08-2.13,3.76-1.89C26.86,32.44,26.35,32.9,27,29.15ZM42.24,48.72c5.1.88,5.1.88,5.95-4.1s.85-4.95-4.08-5.79-5-.86-5.86,4.22C37.42,47.9,37.42,47.9,42.24,48.72Z"/><path class="cls-6" d="M27,29.15c-.65,3.75-.14,3.29-3.88,2.68,0-.07,0-.14,0-.2C23.77,28.44,23.77,28.44,27,29.15Z"/><path class="cls-4" d="M42.24,48.72c-4.82-.82-4.82-.82-4-5.67.87-5.08.87-5.08,5.86-4.22s4.93.84,4.08,5.79S47.34,49.6,42.24,48.72Z"/><text class="cls-7" transform="translate(36.94 50.79) rotate(9.73)">$</text><path class="cls-2" d="M132.09,61.48c-3.23.88-3.23.88-4.22-2.38-2.38-7.88-4.74-15.78-7.19-23.65-.43-1.4-.45-2.27,1.24-2.46,1.5-.18,1.35-1.12.9-2.11-.56-1.2-.11-1.66,1.1-2q29-8.72,57.94-17.52c2.82-.86,1.67,1.79,2.49,2.69a.13.13,0,0,1,.09.18,1.84,1.84,0,0,0-.41,0q-28,8.46-56,16.9c-1.15.35-1.43.89-1,2,.28.76.74,1.79-.57,2-2.27.34-1.87,1.61-1.39,3.15,1.29,4.06,2.47,8.16,3.73,12.23,1.14,3.67,2.32,7.32,3.48,11Z"/><path class="cls-3" d="M184.35,14c3.25-.83,3.25-.83,4.27,2.53,2.39,7.89,4.74,15.79,7.19,23.66.43,1.35.33,2.12-1.2,2.3-1.36.15-1.59.89-1,2,.72,1.42,0,1.84-1.28,2.23q-28,8.41-56,16.92c-3.26,1-3.26,1-4.25-2.19h.17c.4-.13.79-.28,1.19-.4q27-8.19,54.08-16.36c1.47-.44,2.73-.79,1.79-2.75a1,1,0,0,1,.8-1.53c2.1-.3,1.8-1.48,1.34-3-2.38-7.73-4.69-15.49-7-23.23A.13.13,0,0,0,184.35,14Z"/><path class="cls-4" d="M184.44,14.2c2.33,7.74,4.64,15.5,7,23.23.46,1.52.76,2.7-1.34,3a1,1,0,0,0-.8,1.53c.94,2-.32,2.31-1.79,2.75q-27,8.15-54.08,16.36c-.4.12-.79.27-1.19.4-1.16-3.66-2.34-7.31-3.48-11-1.26-4.07-2.44-8.17-3.73-12.23-.48-1.54-.88-2.81,1.39-3.15,1.31-.2.85-1.23.57-2-.41-1.09-.13-1.63,1-2q28-8.41,56-16.9A1.84,1.84,0,0,1,184.44,14.2ZM137.17,32c-3.2.82-3.2.82-2.32,3.93,0,.07,0,.14.05.2-1.61.54-3.85.53-2.51,3.37.45,1-.6,1.13-1.23,1.25-1.36.27-1.66.91-1.2,2.22.72,2,1.34,4.12,1.88,6.21.33,1.27.85,1.86,2.18,1.24,1.15-.54,1.85-.21,2.06,1.09s.77,1.76,2,1.18,2-.24,2.2,1.15.91,1.44,2.09,1.08q19.25-5.88,38.5-11.66c1.16-.34,1.75-.8,1.17-2s-.22-2,1.16-2.19,1.56-1,1-2.09-.2-1.87,1.09-2.06,1.58-1,1.14-2.22c-.73-2.11-1.36-4.26-1.94-6.42-.31-1.13-.85-1.55-1.94-1-1.39.66-2.07.12-2.3-1.29-.17-1.06-.77-1.45-1.78-1-1.47.7-2.2.17-2.43-1.35-.18-1.17-.89-1.18-1.85-.89Q155.73,26.32,137.17,32Z"/><path class="cls-5" d="M137.17,32q18.54-5.64,37.08-11.3c1-.29,1.67-.28,1.85.89.23,1.52,1,2.05,2.43,1.35,1-.48,1.61-.09,1.78,1,.23,1.41.91,1.95,2.3,1.29,1.09-.51,1.63-.09,1.94,1,.58,2.16,1.21,4.31,1.94,6.42.44,1.25.28,2-1.14,2.22s-1.62.9-1.09,2.06.29,1.89-1,2.09-1.75,1-1.16,2.19,0,1.7-1.17,2Q161.62,49,142.38,54.87c-1.18.36-1.89.24-2.09-1.08s-.95-1.73-2.2-1.15-1.81,0-2-1.18-.91-1.63-2.06-1.09c-1.33.62-1.85,0-2.18-1.24C131.3,47,130.68,45,130,42.92c-.46-1.31-.16-2,1.2-2.22.63-.12,1.68-.29,1.23-1.25-1.34-2.84.9-2.83,2.51-3.37C138.52,35,138.27,35.59,137.17,32Zm22.39,10.69c4.95-1.5,4.95-1.5,3.49-6.33s-1.46-4.8-6.24-3.36-4.85,1.47-3.36,6.41C154.88,44.06,154.88,44.06,159.56,42.64Z"/><path class="cls-6" d="M137.17,32c1.1,3.64,1.35,3-2.27,4.13,0-.06,0-.13-.05-.2C134,32.77,134,32.77,137.17,32Z"/><path class="cls-4" d="M159.56,42.64c-4.68,1.42-4.68,1.42-6.11-3.28C152,34.42,152,34.42,156.81,33s4.78-1.44,6.24,3.36S164.51,41.14,159.56,42.64Z"/><text class="cls-7" transform="translate(155.75 46.86) rotate(-16.84)">$</text><path class="cls-2" d="M57.24,33.29c-3.28-.66-3.28-.66-2.7-4C55.93,21.15,57.35,13,58.68,4.9c.24-1.44.62-2.23,2.22-1.65,1.42.52,1.7-.39,1.74-1.48,0-1.33.64-1.54,1.89-1.32q29.82,5.16,59.66,10.24c2.91.49.7,2.35,1,3.53a.12.12,0,0,1,0,.19,1.9,1.9,0,0,0-.4-.14L67.19,4.34c-1.19-.21-1.68.15-1.81,1.31-.08.8-.14,1.93-1.39,1.52-2.19-.71-2.4.6-2.65,2.2-.67,4.21-1.44,8.4-2.14,12.61-.62,3.79-1.2,7.58-1.8,11.37Z"/><path class="cls-3" d="M125.21,14.22c3.28.7,3.28.7,2.69,4.16-1.39,8.13-2.82,16.24-4.15,24.38-.23,1.4-.66,2-2.1,1.52s-1.82.09-1.82,1.34c0,1.6-.79,1.66-2.14,1.43q-28.8-5-57.62-9.91c-3.36-.57-3.36-.57-2.83-3.85l.16.06c.42.06.83.11,1.24.18q27.85,4.77,55.69,9.56c1.52.26,2.8.5,2.83-1.66,0-.87.55-1.31,1.4-1,2,.68,2.28-.52,2.54-2.08,1.33-8,2.74-15.95,4.12-23.92A.12.12,0,0,0,125.21,14.22Z"/><path class="cls-4" d="M125.22,14.41c-1.38,8-2.79,15.94-4.12,23.92-.26,1.56-.53,2.76-2.54,2.08-.85-.29-1.39.15-1.4,1,0,2.16-1.31,1.92-2.83,1.66q-27.84-4.81-55.69-9.56c-.41-.07-.82-.12-1.24-.18.6-3.79,1.18-7.58,1.8-11.37.7-4.21,1.47-8.4,2.14-12.61.25-1.6.46-2.91,2.65-2.2,1.25.41,1.31-.72,1.39-1.52.13-1.16.62-1.52,1.81-1.31l57.63,9.93A1.9,1.9,0,0,1,125.22,14.41ZM75,9.15c-3.23-.71-3.23-.71-3.84,2.48,0,.06,0,.13,0,.2-1.68-.24-3.69-1.25-3.76,1.89,0,1.06-1,.73-1.65.56-1.34-.36-1.9.08-2.07,1.45-.27,2.15-.65,4.28-1.09,6.4-.28,1.28-.07,2,1.39,2.08,1.27,0,1.75.65,1.36,1.89s-.1,1.93,1.27,2,1.88.68,1.45,2,.17,1.69,1.38,1.9q19.84,3.35,39.66,6.79c1.19.21,1.92.06,2-1.3s.7-1.88,2-1.44,1.83-.17,1.87-1.4.66-1.76,1.9-1.36,1.84-.16,2-1.48c.29-2.21.68-4.42,1.12-6.61.24-1.14-.06-1.76-1.26-1.79-1.54,0-1.91-.82-1.48-2.18.32-1,0-1.65-1.16-1.67-1.63,0-2-.83-1.57-2.3.36-1.12-.27-1.45-1.26-1.61Q94.1,12.41,75,9.15Z"/><path class="cls-5" d="M75,9.15q19.11,3.24,38.21,6.48c1,.16,1.62.49,1.26,1.61-.47,1.47-.06,2.27,1.57,2.3,1.11,0,1.48.64,1.16,1.67-.43,1.36-.06,2.14,1.48,2.18,1.2,0,1.5.65,1.26,1.79-.44,2.19-.83,4.4-1.12,6.61-.18,1.32-.65,1.93-2,1.48s-1.85.08-1.9,1.36-.58,1.81-1.87,1.4-2,.06-2,1.44-.76,1.51-2,1.3Q89.23,35.32,69.4,32c-1.21-.21-1.79-.63-1.38-1.9s-.08-2-1.45-2-1.63-.81-1.27-2-.09-1.86-1.36-1.89c-1.46,0-1.67-.8-1.39-2.08.44-2.12.82-4.25,1.09-6.4.17-1.37.73-1.81,2.07-1.45.61.17,1.63.5,1.65-.56.07-3.14,2.08-2.13,3.76-1.89C74.86,12.44,74.35,12.9,75,9.15ZM90.24,28.72c5.1.88,5.1.88,6-4.1s.85-4.95-4.08-5.79-5-.86-5.86,4.22C85.42,27.9,85.42,27.9,90.24,28.72Z"/><path class="cls-6" d="M75,9.15c-.65,3.75-.14,3.29-3.88,2.68,0-.07,0-.14,0-.2C71.77,8.44,71.77,8.44,75,9.15Z"/><path class="cls-4" d="M90.24,28.72c-4.82-.82-4.82-.82-4-5.67.87-5.08.87-5.08,5.86-4.22s4.93.84,4.08,5.79S95.34,29.6,90.24,28.72Z"/><text class="cls-7" transform="translate(84.94 30.79) rotate(9.73)">$</text><path class="cls-2" d="M57.24,80.29c-3.28-.66-3.28-.66-2.7-4C55.93,68.15,57.35,60,58.68,51.9c.24-1.44.62-2.23,2.22-1.65,1.42.52,1.7-.39,1.74-1.48,0-1.33.64-1.54,1.89-1.32q29.82,5.16,59.66,10.24c2.91.49.7,2.35,1,3.53a.12.12,0,0,1,0,.19,1.9,1.9,0,0,0-.4-.14L67.19,51.34c-1.19-.21-1.68.15-1.81,1.31-.08.8-.14,1.93-1.39,1.52-2.19-.71-2.4.6-2.65,2.2-.67,4.21-1.44,8.4-2.14,12.61-.62,3.79-1.2,7.58-1.8,11.37Z"/><path class="cls-3" d="M125.21,61.22c3.28.7,3.28.7,2.69,4.16-1.39,8.13-2.82,16.24-4.15,24.38-.23,1.4-.66,2-2.1,1.52s-1.82.09-1.82,1.34c0,1.6-.79,1.66-2.14,1.43q-28.8-5-57.62-9.91c-3.36-.57-3.36-.57-2.83-3.85l.16.06c.42.06.83.11,1.24.18q27.85,4.77,55.69,9.56c1.52.26,2.8.5,2.83-1.66,0-.87.55-1.31,1.4-1,2,.68,2.28-.52,2.54-2.08,1.33-8,2.74-16,4.12-23.92A.12.12,0,0,0,125.21,61.22Z"/><path class="cls-4" d="M125.22,61.41c-1.38,8-2.79,15.94-4.12,23.92-.26,1.56-.53,2.76-2.54,2.08-.85-.29-1.39.15-1.4,1,0,2.16-1.31,1.92-2.83,1.66q-27.84-4.82-55.69-9.56c-.41-.07-.82-.12-1.24-.18.6-3.79,1.18-7.58,1.8-11.37.7-4.21,1.47-8.4,2.14-12.61.25-1.6.46-2.91,2.65-2.2,1.25.41,1.31-.72,1.39-1.52.13-1.16.62-1.52,1.81-1.31l57.63,9.93A1.9,1.9,0,0,1,125.22,61.41ZM75,56.15c-3.23-.71-3.23-.71-3.84,2.48,0,.06,0,.13,0,.2-1.68-.24-3.69-1.25-3.76,1.89,0,1.06-1,.73-1.65.56-1.34-.36-1.9.08-2.07,1.45-.27,2.15-.65,4.28-1.09,6.4-.28,1.28-.07,2,1.39,2.08,1.27,0,1.75.65,1.36,1.89s-.1,1.93,1.27,2,1.88.68,1.45,2,.17,1.69,1.38,1.9q19.84,3.34,39.66,6.79c1.19.21,1.92.06,2-1.3s.7-1.88,2-1.44,1.83-.17,1.87-1.4.66-1.76,1.9-1.36,1.84-.16,2-1.48c.29-2.21.68-4.42,1.12-6.61.24-1.14-.06-1.76-1.26-1.79-1.54,0-1.91-.82-1.48-2.18.32-1,0-1.65-1.16-1.67-1.63,0-2-.83-1.57-2.3.36-1.12-.27-1.45-1.26-1.61Q94.1,59.4,75,56.15Z"/><path class="cls-5" d="M75,56.15q19.11,3.24,38.21,6.48c1,.16,1.62.49,1.26,1.61-.47,1.47-.06,2.27,1.57,2.3,1.11,0,1.48.64,1.16,1.67-.43,1.36-.06,2.14,1.48,2.18,1.2,0,1.5.65,1.26,1.79-.44,2.19-.83,4.4-1.12,6.61-.18,1.32-.65,1.93-2,1.48s-1.85.08-1.9,1.36-.58,1.81-1.87,1.4-2,.06-2,1.44-.76,1.51-2,1.3Q89.23,82.32,69.4,79c-1.21-.21-1.79-.63-1.38-1.9s-.08-2-1.45-2-1.63-.81-1.27-2-.09-1.86-1.36-1.89c-1.46,0-1.67-.8-1.39-2.08.44-2.12.82-4.25,1.09-6.4.17-1.37.73-1.81,2.07-1.45.61.17,1.63.5,1.65-.56.07-3.14,2.08-2.13,3.76-1.89C74.86,59.44,74.35,59.9,75,56.15ZM90.24,75.72c5.1.88,5.1.88,6-4.1s.85-5-4.08-5.79-5-.86-5.86,4.22C85.42,74.9,85.42,74.9,90.24,75.72Z"/><path class="cls-6" d="M75,56.15c-.65,3.75-.14,3.29-3.88,2.68,0-.07,0-.14,0-.2C71.77,55.44,71.77,55.44,75,56.15Z"/><path class="cls-4" d="M90.24,75.72c-4.82-.82-4.82-.82-4-5.67.87-5.08.87-5.08,5.86-4.22s4.93.84,4.08,5.79S95.34,76.6,90.24,75.72Z"/><text class="cls-7" transform="translate(84.94 77.79) rotate(9.73)">$</text><path class="cls-2" d="M114.24,75.29c-3.28-.66-3.28-.66-2.7-4,1.39-8.12,2.81-16.23,4.14-24.37.24-1.44.62-2.23,2.22-1.65,1.42.52,1.7-.39,1.74-1.48,0-1.33.64-1.54,1.89-1.32q29.82,5.16,59.66,10.24c2.91.49.7,2.35,1,3.53a.12.12,0,0,1,0,.19,1.9,1.9,0,0,0-.4-.14l-57.63-9.93c-1.19-.21-1.68.15-1.81,1.31-.08.8-.14,1.93-1.39,1.52-2.19-.71-2.4.6-2.65,2.2-.67,4.21-1.44,8.4-2.14,12.61-.62,3.79-1.2,7.58-1.8,11.37Z"/><path class="cls-3" d="M182.21,56.22c3.28.7,3.28.7,2.69,4.16-1.39,8.13-2.82,16.24-4.15,24.38-.23,1.4-.66,2-2.1,1.52-1.29-.47-1.82.09-1.82,1.34,0,1.6-.79,1.66-2.14,1.43q-28.8-5-57.62-9.91c-3.36-.57-3.36-.57-2.83-3.85l.16.06c.42.06.83.11,1.24.18q27.86,4.77,55.69,9.56c1.52.26,2.8.5,2.83-1.66,0-.87.55-1.31,1.4-1,2,.68,2.28-.52,2.54-2.08,1.33-8,2.74-16,4.12-23.92A.12.12,0,0,0,182.21,56.22Z"/><path class="cls-4" d="M182.22,56.41c-1.38,8-2.79,15.94-4.12,23.92-.26,1.56-.53,2.76-2.54,2.08-.85-.29-1.39.15-1.4,1,0,2.16-1.31,1.92-2.83,1.66q-27.84-4.82-55.69-9.56c-.41-.07-.82-.12-1.24-.18.6-3.79,1.18-7.58,1.8-11.37.7-4.21,1.47-8.4,2.14-12.61.25-1.6.46-2.91,2.65-2.2,1.25.41,1.31-.72,1.39-1.52.13-1.16.62-1.52,1.81-1.31l57.63,9.93A1.9,1.9,0,0,1,182.22,56.41ZM132,51.15c-3.23-.71-3.23-.71-3.84,2.48,0,.06,0,.13,0,.2-1.68-.24-3.69-1.25-3.76,1.89,0,1.06-1,.73-1.65.56-1.34-.36-1.9.08-2.07,1.45-.27,2.15-.65,4.28-1.09,6.4-.28,1.28-.07,2,1.39,2.08,1.27,0,1.75.65,1.36,1.89s-.1,1.93,1.27,2,1.88.68,1.45,2,.17,1.69,1.38,1.9q19.85,3.34,39.66,6.79c1.19.21,1.92.06,1.95-1.3s.7-1.88,2-1.44,1.83-.17,1.87-1.4.66-1.76,1.9-1.36,1.84-.16,2-1.48c.29-2.21.68-4.42,1.12-6.61.24-1.14-.06-1.76-1.26-1.79-1.54,0-1.91-.82-1.48-2.18.32-1,0-1.65-1.16-1.67-1.63,0-2-.83-1.57-2.3.36-1.12-.27-1.45-1.26-1.61Q151.1,54.4,132,51.15Z"/><path class="cls-5" d="M132,51.15q19.11,3.24,38.21,6.48c1,.16,1.62.49,1.26,1.61-.47,1.47-.06,2.27,1.57,2.3,1.11,0,1.48.64,1.16,1.67-.43,1.36-.06,2.14,1.48,2.18,1.2,0,1.5.65,1.26,1.79-.44,2.19-.83,4.4-1.12,6.61-.18,1.32-.65,1.93-2,1.48s-1.85.08-1.9,1.36-.58,1.81-1.87,1.4-2,.06-2,1.44-.76,1.51-1.95,1.3Q146.23,77.32,126.4,74c-1.21-.21-1.79-.63-1.38-1.9s-.08-2-1.45-2-1.63-.81-1.27-2-.09-1.86-1.36-1.89c-1.46,0-1.67-.8-1.39-2.08.44-2.12.82-4.25,1.09-6.4.17-1.37.73-1.81,2.07-1.45.61.17,1.63.5,1.65-.56.07-3.14,2.08-2.13,3.76-1.89C131.86,54.44,131.35,54.9,132,51.15Zm15.24,19.57c5.1.88,5.1.88,5.95-4.1s.85-5-4.08-5.79-5-.86-5.86,4.22C142.42,69.9,142.42,69.9,147.24,70.72Z"/><path class="cls-6" d="M132,51.15c-.65,3.75-.14,3.29-3.88,2.68,0-.07,0-.14,0-.2C128.77,50.44,128.77,50.44,132,51.15Z"/><path class="cls-4" d="M147.24,70.72c-4.82-.82-4.82-.82-4-5.67.87-5.08.87-5.08,5.86-4.22s4.93.84,4.08,5.79S152.34,71.6,147.24,70.72Z"/><text class="cls-7" transform="translate(141.94 72.79) rotate(9.73)">$</text><path class="cls-2" d="M12.53,95c-3.21.94-3.21.94-4.26-2.31C5.74,84.81,3.24,77,.65,69.14c-.47-1.39-.5-2.26,1.19-2.49,1.5-.2,1.33-1.13.86-2.11-.58-1.2-.14-1.67,1.06-2.06Q32.58,53.24,61.37,43.9c2.81-.91,1.71,1.76,2.54,2.65.09,0,.12.08.09.17a2.87,2.87,0,0,0-.41.05q-27.84,9-55.67,17.93c-1.15.36-1.42.91-1,2,.29.75.77,1.77-.53,2-2.27.38-1.85,1.65-1.33,3.18C6.43,75.91,7.69,80,9,84c1.2,3.65,2.45,7.28,3.68,10.91Z"/><path class="cls-3" d="M63.91,46.55c3.24-.89,3.24-.89,4.31,2.45,2.54,7.84,5,15.69,7.63,23.52.45,1.35.36,2.11-1.16,2.32-1.36.18-1.57.92-1,2,.74,1.41.06,1.84-1.24,2.26Q44.63,88.06,16.82,97.06c-3.25,1-3.25,1-4.29-2.1l.17,0c.39-.14.78-.29,1.18-.42q26.88-8.68,53.77-17.34c1.47-.47,2.72-.85,1.74-2.79a1,1,0,0,1,.77-1.55c2.1-.33,1.78-1.51,1.29-3-2.53-7.69-5-15.4-7.45-23.1C64,46.63,64,46.57,63.91,46.55Z"/><path class="cls-4" d="M64,46.72c2.48,7.7,4.92,15.41,7.45,23.1.49,1.51.81,2.69-1.29,3a1,1,0,0,0-.77,1.55c1,1.94-.27,2.32-1.74,2.79q-26.9,8.64-53.77,17.34c-.4.13-.79.28-1.18.42C11.47,91.31,10.22,87.68,9,84c-1.33-4-2.59-8.12-3.95-12.16-.52-1.53-.94-2.8,1.33-3.18,1.3-.22.82-1.24.53-2-.43-1.09-.16-1.64,1-2q27.84-8.94,55.67-17.93A2.87,2.87,0,0,1,64,46.72ZM17.07,65.34c-3.18.87-3.18.87-2.25,4a1.46,1.46,0,0,1,0,.2c-1.59.57-3.84.6-2.45,3.42.47.95-.58,1.13-1.2,1.27-1.35.29-1.64.94-1.16,2.24.75,2,1.41,4.09,2,6.17.36,1.26.89,1.85,2.2,1.2,1.15-.56,1.85-.24,2.09,1s.8,1.75,2,1.15,2-.28,2.22,1.11.93,1.42,2.11,1Q41.83,81.94,61,75.8c1.15-.37,1.73-.84,1.13-2.06s-.25-2,1.12-2.22,1.54-1,1-2.11-.24-1.86,1.05-2.08,1.56-1,1.1-2.24c-.77-2.1-1.44-4.23-2.06-6.38-.33-1.12-.88-1.53-2-1-1.37.68-2.06.15-2.32-1.25-.19-1.06-.8-1.44-1.79-.94-1.46.73-2.2.21-2.46-1.31-.2-1.16-.91-1.16-1.87-.85Q35.51,59.38,17.07,65.34Z"/><path class="cls-5" d="M17.07,65.34q18.43-6,36.86-12c1-.31,1.67-.31,1.87.85.26,1.52,1,2,2.46,1.31,1-.5,1.6-.12,1.79.94.26,1.4,1,1.93,2.32,1.25,1.08-.53,1.63-.12,2,1,.62,2.15,1.29,4.28,2.06,6.38.46,1.24.32,2-1.1,2.24s-1.6.93-1.05,2.08.32,1.89-1,2.11-1.73,1-1.12,2.22,0,1.69-1.13,2.06Q41.83,81.94,22.7,88.16c-1.18.38-1.89.27-2.11-1s-1-1.72-2.22-1.11-1.82,0-2-1.15-.94-1.61-2.09-1c-1.31.65-1.84.06-2.2-1.2-.58-2.08-1.24-4.15-2-6.17-.48-1.3-.19-2,1.16-2.24.62-.14,1.67-.32,1.2-1.27-1.39-2.82.86-2.85,2.45-3.42C18.48,68.32,18.24,69,17.07,65.34ZM39.65,75.62C44.57,74,44.57,74,43,69.22s-1.54-4.77-6.3-3.24-4.82,1.56-3.24,6.47C35,77.12,35,77.12,39.65,75.62Z"/><path class="cls-6" d="M17.07,65.34c1.17,3.62,1.41,3-2.2,4.17a1.46,1.46,0,0,0,0-.2C13.89,66.21,13.89,66.21,17.07,65.34Z"/><path class="cls-4" d="M39.65,75.62c-4.66,1.5-4.66,1.5-6.17-3.17C31.9,67.54,31.9,67.54,36.72,66s4.76-1.53,6.3,3.24S44.57,74,39.65,75.62Z"/><text class="cls-7" transform="translate(35.91 79.9) rotate(-17.89)">$</text></g></g></svg>